# xmcd
#
# Track frame offsets:
# 150
# 8662
# 19875
# 30337
# 41450
# 55172
# 64087
# 78062
# 89212
# 104712
#
# Disc length: 1523 seconds
#
#
# Revision: 0
# Processed by: cddbd v1.5.2PL0 Copyright (c) Steve Scherf et al.
# Submitted via: FreeRIP 2.941 
#
DISCID=7505f10a
DTITLE=Various Artist - Christmas With The Country Stars
DYEAR=1980
DGENRE=Country
TTITLE0=George Jones - Joy To The World
TTITLE1=Jody Miller - The First Noel
TTITLE2=Tanya Tucker - Away In A Manger
TTITLE3=Charlie Rich - God Rest Ye Merry, Gentlemen
TTITLE4=Sonny James - O Little Town Of Bethlehem
TTITLE5=Charlie Rich - O Holy Night
TTITLE6=Tanya Tucker - Silent Night
TTITLE7=George Jones - O Come, All Ye Faithful
TTITLE8=Jody Miller - What Child Is This?
TTITLE9=Lynn Anderson - Soon It Will Be Christmas Day
EXTD=Sony Music AQ 15427
EXTT0=
EXTT1=
EXTT2=
EXTT3=
EXTT4=
EXTT5=
EXTT6=
EXTT7=
EXTT8=
EXTT9=
PLAYORDER=
